# xmcd
#
# Track frame offsets:
#	150
#	13748
#	29819
#
# Disc length: 662 seconds
#
# Revision: 5
# Processed by: cddbd v1.5.2PL0 Copyright (c) Steve Scherf et al.
# Submitted via: dBpowerAMP V4.0
#
DISCID=21029403
DTITLE=Simple Plan - Shut Up!
DYEAR=2005
DGENRE=Rock
TTITLE0=Shut Up! (Album Version)
TTITLE1=Welcome To My Life (Acoustic)
TTITLE2=I'd Do Anyhting (Live from Dew Burning Van)
EXTD=
EXTT0=
EXTT1=
EXTT2=
PLAYORDER=
